<?xml version="1.0" encoding="utf-8"?>
<!-- Generator: Adobe Illustrator 21.0.2, SVG Export Plug-In . SVG Version: 6.00 Build 0)  -->
<svg version="1.1" id="图层_1" xmlns="http://www.w3.org/2000/svg" xmlns:xlink="http://www.w3.org/1999/xlink" x="0px" y="0px"
	 viewBox="0 0 1005.1 999.9" style="enable-background:new 0 0 1005.1 999.9;" xml:space="preserve">
<style type="text/css">
	.st0{fill:#00BE94;}
</style>
<title></title>
<g id="icomoon-ignore">
</g>
<path class="st0" d="M645.4,774.1v-91.4c0-5.3-1.7-9.7-5.1-13.1c-3.4-3.4-7.8-5.1-13.1-5.1h-54.9V371.8c0-5.3-1.7-9.7-5.1-13.1
	c-3.4-3.4-7.8-5.1-13.1-5.1H371.1c-5.3,0-9.7,1.7-13.1,5.1c-3.4,3.4-5.1,7.8-5.1,13.1v91.4c0,5.3,1.7,9.7,5.1,13.1s7.8,5.1,13.1,5.1
	h54.9v182.9h-54.9c-5.3,0-9.7,1.7-13.1,5.1c-3.4,3.4-5.1,7.8-5.1,13.1v91.4c0,5.3,1.7,9.7,5.1,13.1s7.8,5.1,13.1,5.1h256
	c5.3,0,9.7-1.7,13.1-5.1S645.4,779.4,645.4,774.1L645.4,774.1z M572.2,262.1v-91.4c0-5.3-1.7-9.7-5.1-13.1
	c-3.4-3.4-7.8-5.1-13.1-5.1H444.2c-5.3,0-9.7,1.7-13.1,5.1c-3.4,3.4-5.1,7.8-5.1,13.1v91.4c0,5.3,1.7,9.7,5.1,13.1
	c3.4,3.4,7.8,5.1,13.1,5.1h109.7c5.3,0,9.7-1.7,13.1-5.1S572.2,267.4,572.2,262.1z M937.9,499.8c0,79.6-19.6,153-58.9,220.3
	c-39.2,67.2-92.5,120.5-159.7,159.7c-67.2,39.2-140.7,58.9-220.3,58.9S346,919,278.8,879.8c-67.2-39.2-120.5-92.5-159.7-159.7
	S60.2,579.4,60.2,499.8c0-79.6,19.6-153,58.9-220.3S211.6,159,278.8,119.8S419.5,61,499.1,61s153,19.6,220.3,58.9
	s120.5,92.5,159.7,159.7C918.3,346.8,937.9,420.2,937.9,499.8z"/>
</svg>
